G04*
G04 #@! TF.GenerationSoftware,Altium Limited,Altium Designer,25.4.2 (15)*
G04*
G04 Layer_Color=8388736*
%FSLAX44Y44*%
%MOMM*%
G71*
G04*
G04 #@! TF.SameCoordinates,7CC7F18F-E7B3-4B97-A1FD-F02243D0E875*
G04*
G04*
G04 #@! TF.FilePolarity,Negative*
G04*
G01*
G75*
%ADD14R,1.3556X0.2700*%
%ADD15R,0.2700X1.3556*%
%ADD17R,2.9600X2.9600*%
%ADD18C,1.1882*%
%ADD19R,1.1882X1.1882*%
D14*
X186822Y364050D02*
D03*
Y359050D02*
D03*
Y354050D02*
D03*
Y349050D02*
D03*
Y344050D02*
D03*
Y339050D02*
D03*
Y334050D02*
D03*
Y329050D02*
D03*
Y324050D02*
D03*
Y319050D02*
D03*
Y314050D02*
D03*
Y309050D02*
D03*
X270378D02*
D03*
Y314050D02*
D03*
Y319050D02*
D03*
Y324050D02*
D03*
Y329050D02*
D03*
Y334050D02*
D03*
Y339050D02*
D03*
Y344050D02*
D03*
Y349050D02*
D03*
Y354050D02*
D03*
Y359050D02*
D03*
Y364050D02*
D03*
D15*
X201100Y294772D02*
D03*
X206100D02*
D03*
X211100D02*
D03*
X216100D02*
D03*
X221100D02*
D03*
X226100D02*
D03*
X231100D02*
D03*
X236100D02*
D03*
X241100D02*
D03*
X246100D02*
D03*
X251100D02*
D03*
X256100D02*
D03*
Y378328D02*
D03*
X251100D02*
D03*
X246100D02*
D03*
X241100D02*
D03*
X236100D02*
D03*
X231100D02*
D03*
X226100D02*
D03*
X221100D02*
D03*
X216100D02*
D03*
X211100D02*
D03*
X206100D02*
D03*
X201100D02*
D03*
D17*
X228600Y336550D02*
D03*
D18*
X480060Y19050D02*
D03*
Y44450D02*
D03*
Y69850D02*
D03*
Y95250D02*
D03*
Y120650D02*
D03*
Y146050D02*
D03*
Y171450D02*
D03*
Y196850D02*
D03*
Y222250D02*
D03*
Y247650D02*
D03*
Y273050D02*
D03*
Y298450D02*
D03*
Y323850D02*
D03*
Y349250D02*
D03*
Y374650D02*
D03*
Y400050D02*
D03*
Y425450D02*
D03*
Y450850D02*
D03*
Y476250D02*
D03*
Y501650D02*
D03*
Y527050D02*
D03*
Y552450D02*
D03*
Y577850D02*
D03*
Y603250D02*
D03*
X19050Y635000D02*
D03*
Y609600D02*
D03*
Y584200D02*
D03*
Y558800D02*
D03*
Y533400D02*
D03*
Y508000D02*
D03*
Y482600D02*
D03*
Y457200D02*
D03*
Y431800D02*
D03*
Y406400D02*
D03*
Y381000D02*
D03*
Y355600D02*
D03*
Y330200D02*
D03*
Y304800D02*
D03*
Y279400D02*
D03*
Y254000D02*
D03*
Y228600D02*
D03*
Y203200D02*
D03*
Y177800D02*
D03*
Y152400D02*
D03*
Y127000D02*
D03*
Y101600D02*
D03*
Y76200D02*
D03*
Y50800D02*
D03*
D19*
X480060Y628650D02*
D03*
X19050Y25400D02*
D03*
M02*
