G04*
G04 #@! TF.GenerationSoftware,Altium Limited,Altium Designer,25.4.2 (15)*
G04*
G04 Layer_Color=65535*
%FSLAX44Y44*%
%MOMM*%
G71*
G04*
G04 #@! TF.SameCoordinates,7CC7F18F-E7B3-4B97-A1FD-F02243D0E875*
G04*
G04*
G04 #@! TF.FilePolarity,Positive*
G04*
G01*
G75*
%ADD10C,0.2000*%
%ADD11C,0.1524*%
%ADD12C,0.2540*%
%ADD13C,0.0762*%
G36*
X177504Y320955D02*
X174964D01*
Y317145D01*
X177504D01*
Y320955D01*
D02*
G37*
G36*
X238005Y285454D02*
X234195D01*
Y282914D01*
X238005D01*
Y285454D01*
D02*
G37*
G36*
X279696Y335955D02*
X282236D01*
Y332145D01*
X279696D01*
Y335955D01*
D02*
G37*
G36*
X243005Y387646D02*
X239195D01*
Y390186D01*
X243005D01*
Y387646D01*
D02*
G37*
D10*
X481060Y647850D02*
G03*
X481060Y647850I-1000J0D01*
G01*
X20050Y6200D02*
G03*
X20050Y6200I-1000J0D01*
G01*
X467360Y6350D02*
Y641350D01*
X492760Y6350D02*
Y641350D01*
X467360Y6350D02*
X492760D01*
X467360Y641350D02*
X492760D01*
X31750Y12700D02*
Y647700D01*
X6350Y12700D02*
Y647700D01*
X31750D01*
X6350Y12700D02*
X31750D01*
D11*
X192330Y372820D02*
X196423D01*
X192330Y300280D02*
X196423D01*
X264870D02*
Y304373D01*
X260777Y372820D02*
X264870D01*
X192330Y368727D02*
Y372820D01*
Y300280D02*
Y304373D01*
X260777Y300280D02*
X264870D01*
Y368727D02*
Y372820D01*
D12*
X55881Y629917D02*
X50802D01*
X53342D01*
Y617222D01*
X50802Y614683D01*
X48263D01*
X45724Y617222D01*
X71116Y614683D02*
X60959D01*
X71116Y624839D01*
Y627378D01*
X68577Y629917D01*
X63498D01*
X60959Y627378D01*
X439420Y632458D02*
X434342D01*
X436881D01*
Y619762D01*
X434342Y617223D01*
X431802D01*
X429263Y619762D01*
X444498Y617223D02*
X449577D01*
X447038D01*
Y632458D01*
X444498Y629918D01*
X264165Y284478D02*
X269244D01*
X266705D01*
Y269242D01*
X264165D01*
X269244D01*
X287018Y281938D02*
X284479Y284478D01*
X279400D01*
X276861Y281938D01*
Y271782D01*
X279400Y269242D01*
X284479D01*
X287018Y271782D01*
X292096Y269242D02*
X297175D01*
X294636D01*
Y284478D01*
X292096Y281938D01*
D13*
X173990Y399200D02*
X182454Y390736D01*
X173990D02*
X182454Y399200D01*
X173990Y394968D02*
X182454D01*
X178222Y390736D02*
Y399200D01*
M02*
