G04*
G04 #@! TF.GenerationSoftware,Altium Limited,Altium Designer,25.4.2 (15)*
G04*
G04 Layer_Color=8421504*
%FSLAX44Y44*%
%MOMM*%
G71*
G04*
G04 #@! TF.SameCoordinates,7CC7F18F-E7B3-4B97-A1FD-F02243D0E875*
G04*
G04*
G04 #@! TF.FilePolarity,Positive*
G04*
G01*
G75*
%ADD14R,1.3556X0.2700*%
%ADD15R,0.2700X1.3556*%
%ADD16R,0.0254X0.0254*%
G36*
X227600Y335550D02*
X214800D01*
Y322750D01*
X227600D01*
Y335550D01*
D02*
G37*
G36*
Y350350D02*
X214800D01*
Y337550D01*
X227600D01*
Y350350D01*
D02*
G37*
G36*
X242400Y335550D02*
X229600D01*
Y322750D01*
X242400D01*
Y335550D01*
D02*
G37*
G36*
Y350350D02*
X229600D01*
Y337550D01*
X242400D01*
Y350350D01*
D02*
G37*
D14*
X186822Y364050D02*
D03*
Y359050D02*
D03*
Y354050D02*
D03*
Y349050D02*
D03*
Y344050D02*
D03*
Y339050D02*
D03*
Y334050D02*
D03*
Y329050D02*
D03*
Y324050D02*
D03*
Y319050D02*
D03*
Y314050D02*
D03*
Y309050D02*
D03*
X270378D02*
D03*
Y314050D02*
D03*
Y319050D02*
D03*
Y324050D02*
D03*
Y329050D02*
D03*
Y334050D02*
D03*
Y339050D02*
D03*
Y344050D02*
D03*
Y349050D02*
D03*
Y354050D02*
D03*
Y359050D02*
D03*
Y364050D02*
D03*
D15*
X201100Y294772D02*
D03*
X206100D02*
D03*
X211100D02*
D03*
X216100D02*
D03*
X221100D02*
D03*
X226100D02*
D03*
X231100D02*
D03*
X236100D02*
D03*
X241100D02*
D03*
X246100D02*
D03*
X251100D02*
D03*
X256100D02*
D03*
Y378328D02*
D03*
X251100D02*
D03*
X246100D02*
D03*
X241100D02*
D03*
X236100D02*
D03*
X231100D02*
D03*
X226100D02*
D03*
X221100D02*
D03*
X216100D02*
D03*
X211100D02*
D03*
X206100D02*
D03*
X201100D02*
D03*
D16*
X228600Y336550D02*
D03*
M02*
