M48
;Layer_Color=9474304
;FILE_FORMAT=4:4
METRIC,LZ
;TYPE=PLATED
T01F00S00C0.6350
%
T01
X0048006Y0001905
Y0004445
Y0006985
Y0009525
Y0012065
Y0014605
Y0017145
Y0019685
Y0022225
Y0024765
Y0027305
Y0029845
Y0032385
Y0034925
Y0037465
Y0040005
X0001905Y004064
Y00381
Y003556
Y003302
Y003048
Y002794
Y00254
Y002286
Y002032
Y001778
Y001524
Y00127
Y001016
Y000762
Y000508
Y000254
Y004318
Y004572
Y004826
Y00508
Y005334
Y005588
Y005842
Y006096
Y00635
X0048006Y0062865
Y0060325
Y0057785
Y0055245
Y0052705
Y0050165
Y0047625
Y0045085
Y0042545
M30
